SQR Cal 0P6 2mins																																				
version=1																																				
nRows=26																																				
nColumns=37																																				
inDegrees=yes																																				
endheader																																				
time	ground_force1_vx	ground_force1_vy	ground_force1_vz	ground_force1_px	ground_force1_py	ground_force1_pz	ground_torque1_x	ground_torque1_y	ground_torque1_z	ground_force2_vx	ground_force2_vy	ground_force2_vz	ground_force2_px	ground_force2_py	ground_force2_pz	ground_torque2_x	ground_torque2_y	ground_torque2_z	femur_assistance_force_vx	femur_assistance_force_vy	femur_assistance_force_vz	femur_assistance_force_px	femur_assistance_force_py	femur_assistance_force_pz	femur_assistance_torque_x	femur_assistance_torque_y	femur_assistance_torque_z	tibia_assistance_force_vx	tibia_assistance_force_vy	tibia_assistance_force_vz	tibia_assistance_force_px	tibia_assistance_force_py	tibia_assistance_force_pz	tibia_assistance_torque_x	tibia_assistance_torque_y	tibia_assistance_torque_z
90	0	0	0	0.889	0	-0.840175	0	0	0	191.766586	678.308716	-58.810501	1.016895	0	-0.46473	0.000012	-4.021735	0.00008	0	0	0	0	0	0	0	0	0	0	0	0	0	0	0	0	0	0
90.001	0	0	0	0.889	0	-0.840175	0	0	0	192.529526	677.850952	-60.107498	1.017582	0	-0.465494	0.000014	-4.628033	0.000034	0	0	0	0	0	0	0	0	0	0	0	0	0	0	0	0	0	0
90.002	0	0	0	0.889	0	-0.840175	0	0	0	193.979111	678.308716	-60.565262	1.017435	0	-0.46581	0.000011	-6.066821	0.00003	0	0	0	0	0	0	0	0	0	0	0	0	0	0	0	0	0	0
90.003	0	0	0	0.889	0	-0.840175	0	0	0	195.12352	678.766479	-60.946732	1.016029	0	-0.465586	0.000013	-6.802983	0.000019	0	0	0	0	0	0	0	0	0	0	0	0	0	0	0	0	0	0
90.004	0	0	0	0.889	0	-0.840175	0	0	0	196.115341	678.919067	-61.404495	1.015441	0	-0.46593	0	-6.842362	0.000032	0	0	0	0	0	0	0	0	0	0	0	0	0	0	0	0	0	0
90.005	0	0	0	0.889	0	-0.840175	0	0	0	196.725693	679.529419	-62.014847	1.01435	0	-0.466231	0.000005	-6.877826	0.00003	0	0	0	0	0	0	0	0	0	0	0	0	0	0	0	0	0	0
90.006	0	0	0	0.889	0	-0.840175	0	0	0	197.336044	680.750122	-62.396317	1.013248	0	-0.466022	0.000007	-7.291361	0.000082	0	0	0	0	0	0	0	0	0	0	0	0	0	0	0	0	0	0
90.007	0	0	0	0.889	0	-0.840175	0	0	0	197.64122	681.207886	-62.625198	1.012926	0	-0.466336	0.000007	-8.016354	0.000025	0	0	0	0	0	0	0	0	0	0	0	0	0	0	0	0	0	0
90.008	0	0	0	0.889	0	-0.840175	0	0	0	198.327866	681.360474	-62.243729	1.013236	0	-0.466411	0.000017	-8.718426	0.000046	0	0	0	0	0	0	0	0	0	0	0	0	0	0	0	0	0	0
90.009	0	0	0	0.889	0	-0.840175	0	0	0	198.633041	681.513062	-60.946732	1.012472	0	-0.46559	0.000022	-9.081896	0.000033	0	0	0	0	0	0	0	0	0	0	0	0	0	0	0	0	0	0
90.01	0	0	0	0.889	0	-0.840175	0	0	0	198.785629	681.207886	-59.802322	1.012567	0	-0.464992	0.000002	-8.050858	0.000045	0	0	0	0	0	0	0	0	0	0	0	0	0	0	0	0	0	0
90.011	0	0	0	0.889	0	-0.840175	0	0	0	198.709335	681.970825	-58.505325	1.011613	0	-0.464651	0.000007	-7.058387	0.00005	0	0	0	0	0	0	0	0	0	0	0	0	0	0	0	0	0	0
90.012	0	0	0	0.889	0	-0.840175	0	0	0	199.090805	683.191528	-58.047562	1.010878	0	-0.464446	-0.000005	-6.479916	0.000057	0	0	0	0	0	0	0	0	0	0	0	0	0	0	0	0	0	0
90.013	0	0	0	0.889	0	-0.840175	0	0	0	199.624863	684.564819	-57.742386	1.010277	0	-0.464584	0.000023	-6.183255	0.000034	0	0	0	0	0	0	0	0	0	0	0	0	0	0	0	0	0	0
90.014	0	0	0	0.889	0	-0.840175	0	0	0	200.15892	685.93811	-57.208328	1.010567	0	-0.464633	0.000021	-5.071923	0.000023	0	0	0	0	0	0	0	0	0	0	0	0	0	0	0	0	0	0
90.015	0	0	0	0.889	0	-0.840175	0	0	0	199.777451	687.311401	-55.835037	1.010679	0	-0.464149	0.000009	-3.310808	0.000005	0	0	0	0	0	0	0	0	0	0	0	0	0	0	0	0	0	0
90.016	0	0	0	0.889	0	-0.840175	0	0	0	198.480453	688.074341	-53.775101	1.009736	0	-0.463457	0.000017	-1.34717	0.000049	0	0	0	0	0	0	0	0	0	0	0	0	0	0	0	0	0	0
90.017	0	0	0	0.889	0	-0.840175	0	0	0	197.030869	688.684692	-51.562576	1.009728	0	-0.46278	0.000028	0.763488	-0.000009	0	0	0	0	0	0	0	0	0	0	0	0	0	0	0	0	0	0
90.018	0	0	0	0.889	0	-0.840175	0	0	0	196.420517	688.532104	-49.044876	1.009951	0	-0.462439	0.000013	1.633409	0.000012	0	0	0	0	0	0	0	0	0	0	0	0	0	0	0	0	0	0
90.019	0	0	0	0.889	0	-0.840175	0	0	0	196.420517	688.989868	-46.908646	1.009989	0	-0.461866	0.000002	2.153717	0.00002	0	0	0	0	0	0	0	0	0	0	0	0	0	0	0	0	0	0
90.02	0	0	0	0.889	0	-0.840175	0	0	0	196.954575	688.226929	-45.077591	1.010577	0	-0.462112	0.000012	2.538188	0.000038	0	0	0	0	0	0	0	0	0	0	0	0	0	0	0	0	0	0
90.021	0	0	0	0.889	0	-0.840175	0	0	0	196.878281	688.684692	-42.483597	1.009905	0	-0.461451	0.00001	2.800348	0.000007	0	0	0	0	0	0	0	0	0	0	0	0	0	0	0	0	0	0
90.022	0	0	0	0.889	0	-0.840175	0	0	0	196.649399	688.989868	-40.118484	1.008926	0	-0.461246	0.000007	4.36355	0.000068	0	0	0	0	0	0	0	0	0	0	0	0	0	0	0	0	0	0
90.023	0	0	0	0.889	0	-0.840175	0	0	0	195.886459	690.210571	-37.066727	1.008203	0	-0.46043	0.000013	5.736741	0.000025	0	0	0	0	0	0	0	0	0	0	0	0	0	0	0	0	0	0
90.024	0	0	0	0.889	0	-0.840175	0	0	0	195.886459	690.210571	-34.396439	1.00838	0	-0.459723	0.000007	6.607179	-0.000017	0	0	0	0	0	0	0	0	0	0	0	0	0	0	0	0	0	0
90.025	0	0	0	0.889	0	-0.840175	0	0	0	196.267929	690.820923	-32.717972	1.008549	0	-0.458963	0.000017	7.518385	0.000057	0	0	0	0	0	0	0	0	0	0	0	0	0	0	0	0	0	0
